<svg width="10" height="15" viewBox="0 0 10 15" fill="none" xmlns="http://www.w3.org/2000/svg">
<path d="M5.00006 3.375C5.47366 3.375 5.92787 3.57254 6.26275 3.92417C6.59764 4.27581 6.78578 4.75272 6.78578 5.25C6.78578 5.49623 6.73959 5.74005 6.64985 5.96753C6.56011 6.19502 6.42857 6.40172 6.26275 6.57583C6.09693 6.74994 5.90008 6.88805 5.68342 6.98227C5.46677 7.0765 5.23456 7.125 5.00006 7.125C4.52646 7.125 4.07226 6.92746 3.73737 6.57583C3.40248 6.22419 3.21435 5.74728 3.21435 5.25C3.21435 4.75272 3.40248 4.27581 3.73737 3.92417C4.07226 3.57254 4.52646 3.375 5.00006 3.375ZM5.00006 0C6.32614 0 7.59791 0.553123 8.53559 1.53769C9.47328 2.52226 10.0001 3.85761 10.0001 5.25C10.0001 9.1875 5.00006 15 5.00006 15C5.00006 15 6.10352e-05 9.1875 6.10352e-05 5.25C6.10352e-05 3.85761 0.526845 2.52226 1.46453 1.53769C2.40221 0.553123 3.67398 0 5.00006 0ZM5.00006 1.5C4.05286 1.5 3.14445 1.89509 2.47468 2.59835C1.80491 3.30161 1.42863 4.25544 1.42863 5.25C1.42863 6 1.42863 7.5 5.00006 12.5325C8.57149 7.5 8.57149 6 8.57149 5.25C8.57149 4.25544 8.19522 3.30161 7.52544 2.59835C6.85567 1.89509 5.94726 1.5 5.00006 1.5Z" fill="#1340AF"/>
</svg>
