<svg width="30" height="30" viewBox="0 0 30 30" fill="none" xmlns="http://www.w3.org/2000/svg">
<path d="M7.5 28V2C3 4.6 0 9.45 0 15C0 20.55 3 25.4 7.5 28Z" fill="#699635"/>
<path d="M15 0C12.25 0 9.7 0.75 7.5 2V28C9.7 29.3 12.25 30 15 30C23.3 30 30 23.3 30 15C30 6.7 23.3 0 15 0Z" fill="#ED4C5C"/>
<path d="M7.5 9C4.2 9 1.5 11.7 1.5 15C1.5 18.3 4.2 21 7.5 21C10.8 21 13.5 18.3 13.5 15C13.5 11.7 10.8 9 7.5 9ZM7.5 20.25C4.6 20.25 2.25 17.9 2.25 15C2.25 12.1 4.6 9.75 7.5 9.75C10.4 9.75 12.75 12.1 12.75 15C12.75 17.9 10.4 20.25 7.5 20.25Z" fill="#FFE62E"/>
<path d="M9.55002 20.85C9.45002 20.95 9.30002 20.95 9.20002 20.85L2.35002 11.8C2.25002 11.7 2.25002 11.55 2.35002 11.45L2.50002 11.3C2.60002 11.2 2.75002 11.2 2.85002 11.3L9.70002 20.35C9.80002 20.45 9.80002 20.6 9.70002 20.7L9.55002 20.85Z" fill="#FFE62E"/>
<path d="M7.59998 8.75C7.74998 8.75 7.84998 8.85 7.84998 9V21C7.84998 21.15 7.74998 21.25 7.59998 21.25H7.34998C7.19998 21.25 7.09998 21.15 7.09998 21V9C7.09998 8.85 7.19998 8.75 7.34998 8.75H7.59998Z" fill="#FFE62E"/>
<path d="M13.45 15.65L7.49999 14.6V15.35L13.35 16.4C13.5 16.4 13.6 16.35 13.65 16.2L13.7 15.95C13.7 15.85 13.6 15.7 13.45 15.65ZM7.49999 14.55L2.79999 11.25C2.69999 11.15 2.54999 11.2 2.44999 11.3L2.29999 11.5C2.19999 11.6 2.24999 11.75 2.34999 11.85L7.49999 15.45V14.55Z" fill="#FFE62E"/>
<path d="M7.3 14L2.6 18.7C2.5 18.8 2.5 18.95 2.6 19.05L2.8 19.25C2.9 19.35 3.05 19.35 3.15 19.25L7.3 15.1V14ZM7.5 11.75L1.25 14.7C1.15 14.75 1.05 14.9 1.15 15.05L1.25 15.3C1.3 15.4 1.45 15.5 1.6 15.4L7.5 12.6V11.75Z" fill="#FFE62E"/>
<path d="M13.05 12.6L7.09998 11.55V12.3L12.95 13.35C13.1 13.35 13.2 13.3 13.25 13.15L13.3 12.9C13.25 12.75 13.15 12.6 13.05 12.6ZM7.44998 18.45C7.34998 18.5 7.24998 18.65 7.34998 18.8L7.44998 19.05C7.49998 19.15 7.64998 19.25 7.79998 19.15L12.8 16.85L13.05 15.9L7.44998 18.45ZM7.44998 16.75L1.84998 14.7V15.5L7.44998 17.55V16.75Z" fill="#FFE62E"/>
<path d="M3.54999 18.4V19.15L10.95 19.65C11.25 19.45 11.5 19.2 11.75 18.95L3.54999 18.4Z" fill="#FFE62E"/>
<path d="M5 12.5V16C5 17.4 6.1 18.5 7.5 18.5C8.9 18.5 10 17.4 10 16V12.5H5Z" fill="white"/>
<path d="M7.5 19.5C5.55 19.5 4 17.95 4 16V11.5H11V16C11 17.95 9.45 19.5 7.5 19.5ZM6 13.5V16C6 16.85 6.65 17.5 7.5 17.5C8.35 17.5 9 16.85 9 16V13.5H6Z" fill="#ED4C5C"/>
<path d="M7.04999 13.7V14.5C7.04999 14.65 7.14999 14.75 7.29999 14.75H7.69999C7.84999 14.75 7.94999 14.65 7.94999 14.5V13.65H7.04999V13.7ZM7.04999 14.95V15.8C7.04999 15.95 7.14999 16.05 7.29999 16.05H7.69999C7.84999 16.05 7.94999 15.95 7.94999 15.8V14.95H7.04999ZM6.04999 14.95V15.8C6.04999 15.95 6.14999 16.05 6.29999 16.05H6.69999C6.84999 16.05 6.94999 15.95 6.94999 15.8V14.95H6.04999ZM8.04999 14.95V15.8C8.04999 15.95 8.14999 16.05 8.29999 16.05H8.69999C8.84999 16.05 8.94999 15.95 8.94999 15.8V14.95H8.04999ZM7.04999 16.15V17C7.04999 17.15 7.14999 17.25 7.29999 17.25H7.69999C7.84999 17.25 7.94999 17.15 7.94999 17V16.15H7.04999Z" fill="#0071BC"/>
<path d="M7.50002 15.55C7.55525 15.55 7.60003 15.5052 7.60003 15.45C7.60003 15.3948 7.55525 15.35 7.50002 15.35C7.4448 15.35 7.40002 15.3948 7.40002 15.45C7.40002 15.5052 7.4448 15.55 7.50002 15.55Z" fill="white"/>
<path d="M7.30001 15.8C7.35524 15.8 7.40001 15.7552 7.40001 15.7C7.40001 15.6448 7.35524 15.6 7.30001 15.6C7.24478 15.6 7.20001 15.6448 7.20001 15.7C7.20001 15.7552 7.24478 15.8 7.30001 15.8Z" fill="white"/>
<path d="M7.70004 15.8C7.75526 15.8 7.80004 15.7552 7.80004 15.7C7.80004 15.6448 7.75526 15.6 7.70004 15.6C7.64481 15.6 7.60004 15.6448 7.60004 15.7C7.60004 15.7552 7.64481 15.8 7.70004 15.8Z" fill="white"/>
<path d="M7.30001 15.3C7.35524 15.3 7.40001 15.2552 7.40001 15.2C7.40001 15.1448 7.35524 15.1 7.30001 15.1C7.24478 15.1 7.20001 15.1448 7.20001 15.2C7.20001 15.2552 7.24478 15.3 7.30001 15.3Z" fill="white"/>
<path d="M7.70004 15.3C7.75526 15.3 7.80004 15.2552 7.80004 15.2C7.80004 15.1448 7.75526 15.1 7.70004 15.1C7.64481 15.1 7.60004 15.1448 7.60004 15.2C7.60004 15.2552 7.64481 15.3 7.70004 15.3Z" fill="white"/>
<path d="M7.50002 14.3C7.55525 14.3 7.60003 14.2552 7.60003 14.2C7.60003 14.1448 7.55525 14.1 7.50002 14.1C7.4448 14.1 7.40002 14.1448 7.40002 14.2C7.40002 14.2552 7.4448 14.3 7.50002 14.3Z" fill="white"/>
<path d="M7.30001 14.55C7.35524 14.55 7.40001 14.5052 7.40001 14.45C7.40001 14.3948 7.35524 14.35 7.30001 14.35C7.24478 14.35 7.20001 14.3948 7.20001 14.45C7.20001 14.5052 7.24478 14.55 7.30001 14.55Z" fill="white"/>
<path d="M7.70004 14.55C7.75526 14.55 7.80004 14.5052 7.80004 14.45C7.80004 14.3948 7.75526 14.35 7.70004 14.35C7.64481 14.35 7.60004 14.3948 7.60004 14.45C7.60004 14.5052 7.64481 14.55 7.70004 14.55Z" fill="white"/>
<path d="M7.30001 14.05C7.35524 14.05 7.40001 14.0052 7.40001 13.95C7.40001 13.8948 7.35524 13.85 7.30001 13.85C7.24478 13.85 7.20001 13.8948 7.20001 13.95C7.20001 14.0052 7.24478 14.05 7.30001 14.05Z" fill="white"/>
<path d="M7.70004 14.05C7.75526 14.05 7.80004 14.0052 7.80004 13.95C7.80004 13.8948 7.75526 13.85 7.70004 13.85C7.64481 13.85 7.60004 13.8948 7.60004 13.95C7.60004 14.0052 7.64481 14.05 7.70004 14.05Z" fill="white"/>
<path d="M8.50002 15.55C8.55525 15.55 8.60003 15.5052 8.60003 15.45C8.60003 15.3948 8.55525 15.35 8.50002 15.35C8.4448 15.35 8.40002 15.3948 8.40002 15.45C8.40002 15.5052 8.4448 15.55 8.50002 15.55Z" fill="white"/>
<path d="M8.30001 15.8C8.35524 15.8 8.40001 15.7552 8.40001 15.7C8.40001 15.6448 8.35524 15.6 8.30001 15.6C8.24478 15.6 8.20001 15.6448 8.20001 15.7C8.20001 15.7552 8.24478 15.8 8.30001 15.8Z" fill="white"/>
<path d="M8.70004 15.8C8.75526 15.8 8.80004 15.7552 8.80004 15.7C8.80004 15.6448 8.75526 15.6 8.70004 15.6C8.64481 15.6 8.60004 15.6448 8.60004 15.7C8.60004 15.7552 8.64481 15.8 8.70004 15.8Z" fill="white"/>
<path d="M8.30001 15.3C8.35524 15.3 8.40001 15.2552 8.40001 15.2C8.40001 15.1448 8.35524 15.1 8.30001 15.1C8.24478 15.1 8.20001 15.1448 8.20001 15.2C8.20001 15.2552 8.24478 15.3 8.30001 15.3Z" fill="white"/>
<path d="M8.70004 15.3C8.75526 15.3 8.80004 15.2552 8.80004 15.2C8.80004 15.1448 8.75526 15.1 8.70004 15.1C8.64481 15.1 8.60004 15.1448 8.60004 15.2C8.60004 15.2552 8.64481 15.3 8.70004 15.3Z" fill="white"/>
<path d="M6.50002 15.55C6.55525 15.55 6.60002 15.5052 6.60002 15.45C6.60002 15.3948 6.55525 15.35 6.50002 15.35C6.4448 15.35 6.40002 15.3948 6.40002 15.45C6.40002 15.5052 6.4448 15.55 6.50002 15.55Z" fill="white"/>
<path d="M6.30001 15.8C6.35524 15.8 6.40001 15.7552 6.40001 15.7C6.40001 15.6448 6.35524 15.6 6.30001 15.6C6.24478 15.6 6.20001 15.6448 6.20001 15.7C6.20001 15.7552 6.24478 15.8 6.30001 15.8Z" fill="white"/>
<path d="M6.70004 15.8C6.75526 15.8 6.80004 15.7552 6.80004 15.7C6.80004 15.6448 6.75526 15.6 6.70004 15.6C6.64481 15.6 6.60004 15.6448 6.60004 15.7C6.60004 15.7552 6.64481 15.8 6.70004 15.8Z" fill="white"/>
<path d="M6.30001 15.3C6.35524 15.3 6.40001 15.2552 6.40001 15.2C6.40001 15.1448 6.35524 15.1 6.30001 15.1C6.24478 15.1 6.20001 15.1448 6.20001 15.2C6.20001 15.2552 6.24478 15.3 6.30001 15.3Z" fill="white"/>
<path d="M6.70004 15.3C6.75526 15.3 6.80004 15.2552 6.80004 15.2C6.80004 15.1448 6.75526 15.1 6.70004 15.1C6.64481 15.1 6.60004 15.1448 6.60004 15.2C6.60004 15.2552 6.64481 15.3 6.70004 15.3Z" fill="white"/>
<path d="M7.50002 16.8C7.55525 16.8 7.60003 16.7552 7.60003 16.7C7.60003 16.6448 7.55525 16.6 7.50002 16.6C7.4448 16.6 7.40002 16.6448 7.40002 16.7C7.40002 16.7552 7.4448 16.8 7.50002 16.8Z" fill="white"/>
<path d="M7.30001 17.05C7.35524 17.05 7.40001 17.0052 7.40001 16.95C7.40001 16.8948 7.35524 16.85 7.30001 16.85C7.24478 16.85 7.20001 16.8948 7.20001 16.95C7.20001 17.0052 7.24478 17.05 7.30001 17.05Z" fill="white"/>
<path d="M7.70004 17.05C7.75526 17.05 7.80004 17.0052 7.80004 16.95C7.80004 16.8948 7.75526 16.85 7.70004 16.85C7.64481 16.85 7.60004 16.8948 7.60004 16.95C7.60004 17.0052 7.64481 17.05 7.70004 17.05Z" fill="white"/>
<path d="M7.30001 16.55C7.35524 16.55 7.40001 16.5052 7.40001 16.45C7.40001 16.3948 7.35524 16.35 7.30001 16.35C7.24478 16.35 7.20001 16.3948 7.20001 16.45C7.20001 16.5052 7.24478 16.55 7.30001 16.55Z" fill="white"/>
<path d="M7.70004 16.55C7.75526 16.55 7.80004 16.5052 7.80004 16.45C7.80004 16.3948 7.75526 16.35 7.70004 16.35C7.64481 16.35 7.60004 16.3948 7.60004 16.45C7.60004 16.5052 7.64481 16.55 7.70004 16.55Z" fill="white"/>
<path d="M7 13H8L7.9 12.5V12H8V11.75H7.85V11.9H7.8V11.75H7.65V11.9H7.55V11.75H7.45V11.9H7.35V11.75H7.2V11.9H7.1V11.75H7V12H7.1V12.5L7 13Z" fill="#FFE62E"/>
<path d="M7.65001 13H7.60001V12.8C7.60001 12.75 7.55001 12.7 7.50001 12.7C7.45001 12.7 7.40001 12.75 7.40001 12.8V13H7.35001V12.8C7.35001 12.7 7.40001 12.65 7.50001 12.65C7.60001 12.65 7.65001 12.7 7.65001 12.8V13ZM7.50001 12.45H7.20001V12.2C7.20001 12.1 7.25001 12.05 7.35001 12.05C7.45001 12.05 7.50001 12.1 7.50001 12.2V12.45ZM7.25001 12.4H7.45001V12.2C7.45001 12.15 7.40001 12.1 7.35001 12.1C7.30001 12.1 7.25001 12.15 7.25001 12.2V12.4ZM7.80001 12.45H7.50001V12.2C7.50001 12.1 7.55001 12.05 7.65001 12.05C7.75001 12.05 7.80001 12.1 7.80001 12.2V12.45ZM7.55001 12.4H7.75001V12.2C7.75001 12.15 7.70001 12.1 7.65001 12.1C7.60001 12.1 7.55001 12.15 7.55001 12.2V12.4Z" fill="#3E4347"/>
<path d="M4.5 13H5.5L5.4 12.5V12H5.5V11.75H5.35V11.9H5.3V11.75H5.15V11.9H5.05V11.75H4.95V11.9H4.85V11.75H4.7V11.9H4.6V11.75H4.5V12H4.6V12.5L4.5 13Z" fill="#FFE62E"/>
<path d="M5.15001 13H5.10001V12.8C5.10001 12.75 5.05001 12.7 5.00001 12.7C4.95001 12.7 4.90001 12.75 4.90001 12.8V13H4.85001V12.8C4.85001 12.7 4.90001 12.65 5.00001 12.65C5.10001 12.65 5.15001 12.7 5.15001 12.8V13ZM5.00001 12.45H4.70001V12.2C4.70001 12.1 4.75001 12.05 4.85001 12.05C4.95001 12.05 5.00001 12.1 5.00001 12.2V12.45ZM4.75001 12.4H4.95001V12.2C4.95001 12.15 4.90001 12.1 4.85001 12.1C4.80001 12.1 4.75001 12.15 4.75001 12.2V12.4Z" fill="#3E4347"/>
<path d="M5.3 12.45H5V12.2C5 12.1 5.05 12.05 5.15 12.05C5.25 12.05 5.3 12.1 5.3 12.2V12.45ZM5.05 12.4H5.25V12.2C5.25 12.15 5.2 12.1 5.15 12.1C5.1 12.1 5.05 12.15 5.05 12.2V12.4Z" fill="#3E4347"/>
<path d="M4.5 15.95H5.5L5.4 15.45V14.95H5.5V14.7H5.4V14.85H5.3V14.7H5.2V14.85H5.05V14.7H4.95V14.85H4.85V14.7H4.75V14.85H4.65V14.7H4.5V14.95H4.65V15.45L4.5 15.95Z" fill="#FFE62E"/>
<path d="M5.15001 15.95H5.10001V15.75C5.10001 15.7 5.05001 15.65 5.00001 15.65C4.95001 15.65 4.90001 15.7 4.90001 15.75V15.95H4.85001V15.75C4.85001 15.65 4.90001 15.6 5.00001 15.6C5.10001 15.6 5.15001 15.65 5.15001 15.75V15.95ZM5.00001 15.4H4.70001V15.15C4.70001 15.05 4.75001 15 4.85001 15C4.95001 15 5.00001 15.05 5.00001 15.15V15.4ZM4.75001 15.35H4.95001V15.15C4.95001 15.1 4.90001 15.05 4.85001 15.05C4.80001 15.05 4.75001 15.1 4.75001 15.15V15.35ZM5.35001 15.4H5.05001V15.15C5.05001 15.05 5.10001 15 5.20001 15C5.30001 15 5.35001 15.05 5.35001 15.15V15.4ZM5.10001 15.35H5.30001V15.15C5.30001 15.1 5.25001 15.05 5.20001 15.05C5.15001 15.05 5.10001 15.1 5.10001 15.15V15.35Z" fill="#3E4347"/>
<path d="M9.5 16H10.5L10.4 15.5V15H10.5V14.8H10.35V14.9H10.3V14.8H10.15V14.9H10.05V14.8H9.95V14.9H9.85V14.8H9.7V14.9H9.6V14.8H9.5V15H9.6V15.5L9.5 16Z" fill="#FFE62E"/>
<path d="M10.15 16H10.1V15.8C10.1 15.75 10.05 15.7 10 15.7C9.95001 15.7 9.90001 15.75 9.90001 15.8V16H9.85001V15.8C9.85001 15.7 9.90001 15.65 10 15.65C10.1 15.65 10.15 15.7 10.15 15.8V16ZM10 15.45H9.70001V15.2C9.70001 15.1 9.75001 15.05 9.85001 15.05C9.95001 15.05 10 15.1 10 15.2V15.45ZM9.75001 15.4H9.95001V15.2C9.95001 15.15 9.90001 15.1 9.85001 15.1C9.80001 15.1 9.75001 15.15 9.75001 15.2V15.4ZM10.3 15.45H10V15.2C10 15.1 10.05 15.05 10.15 15.05C10.25 15.05 10.3 15.1 10.3 15.2V15.45ZM10.05 15.4H10.25V15.2C10.25 15.15 10.2 15.1 10.15 15.1C10.1 15.1 10.05 15.15 10.05 15.2V15.4Z" fill="#3E4347"/>
<path d="M9.5 13H10.5L10.4 12.5V12H10.5V11.75H10.35V11.9H10.3V11.75H10.15V11.9H10.05V11.75H9.95V11.9H9.85V11.75H9.7V11.9H9.6V11.75H9.5V12H9.6V12.5L9.5 13Z" fill="#FFE62E"/>
<path d="M10.15 13H10.1V12.8C10.1 12.75 10.05 12.7 10 12.7C9.95001 12.7 9.90001 12.75 9.90001 12.8V13H9.85001V12.8C9.85001 12.7 9.90001 12.65 10 12.65C10.1 12.65 10.15 12.7 10.15 12.8V13ZM10 12.45H9.70001V12.2C9.70001 12.1 9.75001 12.05 9.85001 12.05C9.95001 12.05 10 12.1 10 12.2V12.45ZM9.75001 12.4H9.95001V12.2C9.95001 12.15 9.90001 12.1 9.85001 12.1C9.80001 12.1 9.75001 12.15 9.75001 12.2V12.4ZM10.3 12.45H10V12.2C10 12.1 10.05 12.05 10.15 12.05C10.25 12.05 10.3 12.1 10.3 12.2V12.45ZM10.05 12.4H10.25V12.2C10.25 12.15 10.2 12.1 10.15 12.1C10.1 12.1 10.05 12.15 10.05 12.2V12.4Z" fill="#3E4347"/>
<path d="M6.1 18.8L6.8 18.05L6.35 17.8L6 17.45L6.1 17.35L5.95 17.2L5.85 17.3L5.95 17.4L5.9 17.45L5.8 17.35L5.7 17.45L5.8 17.5L5.7 17.6L5.65 17.5L5.55 17.6L5.65 17.7L5.55 17.75L5.5 17.65L5.4 17.75L5.45 17.85L5.4 17.9L5.35 17.8L5.25 17.9L5.4 18.05H5.45L5.5 18L5.85 18.35L6.1 18.8Z" fill="#FFE62E"/>
<path d="M6.34998 18.2C6.29998 18.15 6.24998 18.15 6.19998 18.2C6.14998 18.25 6.14998 18.3 6.19998 18.35L6.34998 18.5L6.29998 18.55L6.14998 18.4C6.09998 18.35 6.09998 18.25 6.14998 18.2C6.19998 18.15 6.29998 18.15 6.34998 18.2ZM6.04998 18.05L5.84998 18.25L5.69998 18.1C5.64998 18.05 5.64998 17.95 5.69998 17.9C5.74998 17.85 5.84998 17.85 5.89998 17.9L6.04998 18.05ZM5.84998 18.2L5.99998 18.05L5.84998 17.9C5.79998 17.85 5.74998 17.85 5.69998 17.9C5.64998 17.95 5.64998 18 5.69998 18.05L5.84998 18.2ZM6.29998 17.8L6.09998 18L5.94998 17.85C5.89998 17.8 5.89998 17.7 5.94998 17.65C5.99998 17.6 6.09998 17.6 6.14998 17.65L6.29998 17.8ZM6.09998 17.95L6.24998 17.8L6.09998 17.65C6.04998 17.6 5.99998 17.6 5.94998 17.65C5.89998 17.7 5.89998 17.75 5.94998 17.8L6.09998 17.95Z" fill="#3E4347"/>
<path d="M8.90001 18.8L8.20001 18.05L8.60001 17.8L8.95001 17.45L8.90001 17.35L9.05001 17.2L9.15001 17.3L9.05001 17.4L9.10001 17.45L9.20001 17.35L9.30001 17.45L9.20001 17.5L9.30001 17.6L9.35001 17.5L9.45001 17.6L9.35001 17.7L9.45001 17.75L9.50001 17.65L9.60001 17.75L9.50001 17.85L9.60001 17.9L9.65001 17.8L9.75001 17.9L9.60001 18.05H9.55001L9.50001 18L9.15001 18.35L8.90001 18.8Z" fill="#FFE62E"/>
<path d="M8.45001 18.3L8.65001 18.2C8.70001 18.15 8.75001 18.15 8.80001 18.2C8.85001 18.25 8.85001 18.3 8.80001 18.35L8.60001 18.5L8.65001 18.55L8.80001 18.4C8.85001 18.35 8.85001 18.25 8.80001 18.2C8.75001 18.15 8.65001 18.15 8.60001 18.2L8.45001 18.3ZM9.10001 17.9C9.15001 17.85 9.25001 17.85 9.30001 17.9C9.35001 17.95 9.35001 18.05 9.30001 18.1L9.15001 18.25L8.95001 18.05L9.10001 17.9ZM9.25001 18.05C9.30001 18 9.30001 17.95 9.25001 17.9C9.20001 17.85 9.15001 17.85 9.10001 17.9L9.00001 18.05L9.15001 18.2L9.25001 18.05ZM8.85001 17.65C8.90001 17.6 9.00001 17.6 9.05001 17.65C9.10001 17.7 9.10001 17.8 9.05001 17.85L8.90001 18L8.70001 17.8L8.85001 17.65ZM9.05001 17.8C9.10001 17.75 9.10001 17.7 9.05001 17.65C9.00001 17.6 8.95001 17.6 8.90001 17.65L8.75001 17.8L8.90001 17.95L9.05001 17.8Z" fill="#3E4347"/>
</svg>
