<svg width="30" height="30" viewBox="0 0 30 30" fill="none" xmlns="http://www.w3.org/2000/svg">
<path d="M0 15C0 17.95 0.851419 20.7 2.30384 23H27.6962C29.1486 20.7 30 17.95 30 15C30 12.05 29.1486 9.3 27.6962 7H2.30384C0.851419 9.3 0 12.05 0 15Z" fill="#FFCE31"/>
<path d="M27.7462 7C25.0918 2.8 20.384 0 15.025 0C9.6661 0 4.95826 2.8 2.30383 7H27.7462ZM2.30383 23C4.95826 27.2 9.6661 30 15.025 30C20.384 30 25.0918 27.2 27.7462 23H2.30383Z" fill="#ED4C5C"/>
<path d="M3.60602 13.35H5.20869V14.25H3.60602V13.35ZM3.60602 19.95H5.25877V20.8H3.60602V19.95Z" fill="#C8B100"/>
<path d="M3.45532 18.55C3.30532 18.65 3.20532 18.75 3.20532 18.8C3.20532 18.85 3.25532 18.9 3.35532 18.95C3.45532 19 3.55532 19.1 3.50532 19.2C3.60532 19.1 3.65532 19 3.65532 18.9C3.65532 18.75 3.55532 18.6 3.45532 18.55Z" fill="#ED4C5C"/>
<path d="M3.85645 14.25H5.00837V19.95H3.85645V14.25Z" fill="white"/>
<path d="M6.21034 16.35C5.95992 16.25 5.50917 16.15 5.00833 16.15C4.85808 16.15 4.65775 16.15 4.45741 16.2C3.75625 16.3 3.20533 16.6 3.25541 16.8L3.00499 16.25C2.95491 16 3.55591 15.7 4.30716 15.55C4.55758 15.5 4.808 15.5 5.00833 15.5C5.50917 15.5 5.95992 15.55 6.21034 15.65V16.35Z" fill="#ED4C5C"/>
<path d="M3.8564 17.1C3.5559 17.1 3.30548 17 3.30548 16.85C3.30548 16.75 3.40565 16.6 3.60598 16.5H3.90648L3.8564 17.1ZM5.00832 16.65C5.20865 16.7 5.3589 16.75 5.45907 16.8C5.50915 16.85 5.30882 17.05 5.00832 17.2V16.65Z" fill="#ED4C5C"/>
<path d="M3.10499 18.2C3.05491 18.1 3.40549 17.9 3.85624 17.75C4.05658 17.7 4.20683 17.6 4.45724 17.5C5.05825 17.25 5.55908 16.9 5.45891 16.8L5.55908 17.4C5.60916 17.5 5.2085 17.8 4.6075 18.1C4.40716 18.2 4.05658 18.35 3.85624 18.4C3.50566 18.5 3.20516 18.7 3.20516 18.75L3.10499 18.2Z" fill="#ED4C5C"/>
<path d="M14.3739 13.35H15.9766V14.25H14.3739V13.35ZM14.3239 19.95H15.9766V20.8H14.3239V19.95Z" fill="#C8B100"/>
<path d="M16.1266 18.55C16.2766 18.65 16.3766 18.75 16.3766 18.8C16.3766 18.85 16.3266 18.9 16.2266 18.95C16.1266 19.05 16.0266 19.2 16.0766 19.25C15.9766 19.15 15.9266 19.05 15.9266 18.95C15.9266 18.75 16.0266 18.6 16.1266 18.55Z" fill="#ED4C5C"/>
<path d="M14.5743 14.25H15.7262V19.95H14.5743V14.25Z" fill="white"/>
<path d="M13.3723 16.35C13.6227 16.25 14.0735 16.15 14.5743 16.15C14.7246 16.15 14.9249 16.15 15.1252 16.2C15.8264 16.3 16.3773 16.6 16.3272 16.8L16.5777 16.2C16.6277 15.95 16.0267 15.65 15.2755 15.5H14.5743C14.0735 15.5 13.6227 15.55 13.3723 15.65V16.35Z" fill="#ED4C5C"/>
<path d="M15.7262 17.1C16.0267 17.1 16.2772 17 16.2772 16.85C16.2772 16.75 16.177 16.6 15.9767 16.5H15.6762L15.7262 17.1ZM14.5743 16.65C14.374 16.7 14.2237 16.75 14.1236 16.8C14.0735 16.85 14.2738 17.05 14.5743 17.2V16.65Z" fill="#ED4C5C"/>
<path d="M16.4775 18.2C16.5276 18.1 16.177 17.9 15.7262 17.75C15.5259 17.7 15.3756 17.6 15.1252 17.5C14.5242 17.25 14.0234 16.9 14.1236 16.8L14.0234 17.4C13.9733 17.5 14.374 17.8 14.975 18.1C15.1753 18.2 15.5259 18.35 15.7262 18.4C16.0768 18.5 16.3773 18.75 16.3272 18.8L16.4775 18.2ZM9.76629 10.15C10.7179 10.15 12.6711 10.35 13.3723 11.05C12.621 12.85 11.419 12.1 9.76629 12.1C8.16362 12.1 6.91153 12.85 6.16028 11.05C6.86145 10.35 8.76462 10.15 9.76629 10.15Z" fill="#ED4C5C"/>
<path d="M12.2204 12.15C11.6194 11.8 10.7179 11.75 9.7663 11.75C8.81471 11.75 7.91321 11.85 7.31221 12.15L7.51254 13C8.06346 13.15 8.86479 13.25 9.7663 13.25C10.6678 13.25 11.4191 13.15 12.0201 13L12.2204 12.15ZM13.0718 10C12.8715 9.85 12.4708 9.7 12.1202 9.7C11.97 9.7 11.8197 9.7 11.6695 9.75C11.6695 9.75 11.369 9.35 10.6678 9.35C10.4174 9.35 10.217 9.4 10.0167 9.5V9.45C9.96663 9.35 9.86646 9.25 9.7663 9.25C9.66613 9.25 9.51588 9.4 9.51588 9.5V9.55C9.31554 9.45 9.11521 9.4 8.86479 9.4C8.16363 9.4 7.86312 9.85 7.86312 9.8C7.71287 9.75 7.56262 9.75 7.41237 9.75C5.10853 9.75 6.26045 11.3 6.26045 11.3L6.51087 11C5.95995 10.3 6.46079 9.9 7.46246 9.9C7.61271 9.9 7.71287 9.9 7.81304 9.95C7.46246 10.45 8.11354 10.9 8.11354 10.9L8.26379 10.65C7.91321 10.4 7.86312 9.55 8.86479 9.55C9.11521 9.55 9.31554 9.6 9.51588 9.75C9.51588 9.8 9.46579 10.5 9.41571 10.6L9.81638 10.95L10.217 10.6C10.167 10.45 10.1169 9.8 10.1169 9.75C10.2671 9.65 10.5175 9.55 10.768 9.55C11.8197 9.55 11.8197 10.4 11.369 10.65L11.5192 10.9C11.5192 10.9 12.0701 10.45 11.8197 9.95C11.9199 9.95 12.0701 9.9 12.1703 9.9C13.3723 9.9 13.4224 10.8 13.1219 11L13.3222 11.3C13.2221 11.3 13.773 10.6 13.0718 10Z" fill="#C8B100"/>
<path d="M9.46576 9.05C9.46576 8.9 9.61601 8.75 9.76626 8.75C9.96659 8.75 10.0668 8.9 10.0668 9.05C10.0668 9.2 9.91651 9.35 9.76626 9.35C9.61601 9.35 9.46576 9.2 9.46576 9.05Z" fill="#005BBF"/>
<path d="M9.66609 8.20001V8.35001H9.51584V8.50001H9.66609V9.00001H9.46576V9.15001H10.0668L10.1168 9.05001L10.0668 9.00001H9.86643V8.50001H10.0167V8.35001H9.86643V8.20001H9.66609Z" fill="#C8B100"/>
<path d="M9.76625 13.15C8.96492 13.15 8.26375 13.05 7.71283 12.9C8.26375 12.75 8.96492 12.65 9.76625 12.65C10.5676 12.65 11.2688 12.75 11.8197 12.9C11.3188 13.05 10.5676 13.15 9.76625 13.15Z" fill="#ED4C5C"/>
<path d="M9.81634 21.8C8.86475 21.8 7.96325 21.55 7.16191 21.2C6.56091 20.9 6.21033 20.35 6.21033 19.7V17.3H13.4223V19.7C13.4223 20.35 13.0217 20.95 12.4708 21.2C11.6694 21.6 10.7679 21.8 9.81634 21.8ZM9.76625 13.3H13.3723V17.3H9.76625V13.3Z" fill="white"/>
<path d="M9.81634 19.7C9.81634 20.65 9.015 21.4 8.01333 21.4C7.01166 21.4 6.21033 20.65 6.21033 19.7V17.3H9.81634V19.7Z" fill="#ED4C5C"/>
<path d="M6.96161 21.1C7.06178 21.15 7.21203 21.25 7.41236 21.3V17.2H7.0117L6.96161 21.1ZM6.16028 19.65C6.16028 20.15 6.36061 20.55 6.56095 20.75V17.2H6.16028V19.65Z" fill="#C8B100"/>
<path d="M7.76294 21.4H8.16294V17.2H7.76294V21.4Z" fill="#C7B500"/>
<path d="M8.56427 21.3C8.71427 21.25 8.91427 21.15 9.01427 21.1V17.2H8.61427L8.56427 21.3Z" fill="#C8B100"/>
<path d="M6.16028 13.3H9.76629V17.3H6.16028V13.3Z" fill="#ED4C5C"/>
<path d="M9.41571 20.75C9.61571 20.6 9.76571 20.25 9.81571 19.85V17.25H9.41571V20.75Z" fill="#C8B100"/>
<path d="M13.4224 17.3V19.7C13.4224 20.65 12.621 21.4 11.6194 21.4C10.6177 21.4 9.81635 20.65 9.81635 19.7V17.3H13.4224ZM12.1202 14C12.2704 14.3 12.2704 15.05 11.8197 14.9C11.9199 14.95 11.9699 15.3 12.1202 15.5C12.3706 15.8 12.6711 15.55 12.621 15.2C12.5209 14.65 12.5709 14.3 12.6711 13.75C12.6711 13.8 12.9215 13.8 13.0217 13.7C12.9716 13.85 12.9215 14.05 13.0217 14.05C12.9215 14.2 12.6711 14.45 12.621 14.6C12.5709 14.95 13.1219 15.6 12.5209 15.75C12.1202 15.85 12.3706 16.15 12.5209 16.3C12.5209 16.3 12.3205 16.95 12.4207 16.9C12.02 17.05 12.1202 16.7 12.1202 16.7C12.3205 16.1 11.7696 16.05 11.8197 15.95C11.3189 15.9 11.8698 16.4 11.419 16.4C11.3189 16.4 11.1185 16.5 11.1185 16.5C10.5676 16.45 10.8681 15.95 11.0684 16C11.2187 16.05 11.3689 16.3 11.3689 15.95C11.3689 15.95 11.1185 15.55 11.7696 15.55C11.5192 15.55 11.3689 15.35 11.2688 15.1C11.1686 15.15 11.0184 15.4 10.4674 15.45C10.4674 15.45 10.3172 14.9 10.4674 15C10.6678 15.1 10.7679 15.1 10.9683 14.9C10.8681 14.75 10.2671 14.55 10.3673 14.2C10.3673 14.1 10.6678 13.95 10.6678 13.95C10.6177 14.2 10.7679 14.45 11.0684 14.45C11.4691 14.5 11.3189 14.35 11.3689 14.25C11.419 14.15 11.7195 14.3 11.6194 14.05C11.6194 14 11.2688 13.95 11.3689 13.8C11.5693 13.55 11.8698 13.75 12.1202 14ZM9.81635 21.3L9.71619 21.05L9.81635 20.75L9.91652 21.05L9.81635 21.3Z" fill="#ED4C5C"/>
<path d="M7.26211 14.15V14.4H7.36228V14.6H7.11186V15.1H7.26211V16.2H6.96161V16.75H9.01503V16.2H8.76461V15.1H8.86478V14.6H8.61436V14.4H8.76461V14.15H8.26378V14.4H8.36395V14.6H8.11353V14H8.26378V13.75H7.71286V14H7.86311V14.6H7.61269V14.4H7.71286V14.15H7.26211ZM12.9215 20.3V17.8H10.3172V20.3L11.5192 20.85H11.6695L12.9215 20.3ZM11.5192 18V18.85L10.6678 18H11.5192ZM10.4675 18.05L11.4691 19.05L10.4675 20.05V18.05ZM10.5676 20.25L11.5192 19.3V20.7L10.5676 20.25ZM11.6695 20.65V19.25L12.621 20.2L11.6695 20.65ZM12.7212 20.05L11.7195 19.05L12.7212 18.05V20.05ZM11.6695 18H12.5209L11.6695 18.85V18Z" fill="#C8B100"/>
<path d="M8.61438 17.25C8.61438 16.5 9.11521 15.95 9.7663 15.95C10.4174 15.95 10.9182 16.55 10.9182 17.25C10.9182 17.95 10.4174 18.55 9.7663 18.55C9.11521 18.55 8.61438 18 8.61438 17.25Z" fill="#ED4C5C"/>
<path d="M8.96497 17.25C8.96497 16.7 9.31555 16.3 9.7663 16.3C10.2171 16.3 10.5676 16.75 10.5676 17.25C10.5676 17.8 10.2171 18.2 9.7663 18.2C9.36563 18.25 8.96497 17.8 8.96497 17.25Z" fill="#005BBF"/>
<path d="M9.41567 16.6L9.21533 17.15L9.36558 17.2L9.26542 17.4H9.56592L9.46575 17.2L9.616 17.15L9.41567 16.6ZM10.1669 16.6L9.96658 17.15L10.1168 17.2L10.0167 17.4H10.3172L10.2671 17.2L10.4173 17.15L10.1669 16.6ZM9.81633 17.25L9.56592 17.8L9.71617 17.85L9.66608 18.05H9.9165L9.86642 17.85L10.0167 17.8L9.81633 17.25Z" fill="#C8B100"/>
</svg>
